<svg xmlns="http://www.w3.org/2000/svg" xmlns:xlink="http://www.w3.org/1999/xlink" zoomAndPan="magnify"  preserveAspectRatio="xMidYMid meet"  version="1.0"><defs><g/><clipPath id="61d8cd5729"><path d="M 0.988281 0 L 149.011719 0 L 149.011719 33 L 0.988281 33 Z M 0.988281 0 " clip-rule="nonzero"/></clipPath><clipPath id="0d231466f7"><rect x="0" width="150" y="0" height="33"/></clipPath></defs><g clip-path="url(#61d8cd5729)"><g transform="matrix(1, 0, 0, 1, 0.000000000000000222, -0.000000000000001478)"><g clip-path="url(#0d231466f7)"><g fill="#c3592b" fill-opacity="1"><g transform="translate(0.986842, 23.509956)"><g><path d="M 16.890625 -17.703125 L 16.890625 0 L 12.578125 0 L 12.578125 -7.28125 L 5.875 -7.28125 L 5.875 0 L 1.5625 0 L 1.5625 -17.703125 L 5.875 -17.703125 L 5.875 -10.765625 L 12.578125 -10.765625 L 12.578125 -17.703125 Z M 16.890625 -17.703125 "/></g></g></g><g fill="#c3592b" fill-opacity="1"><g transform="translate(19.421642, 23.509956)"><g><path d="M 14.828125 -7.265625 C 14.828125 -6.859375 14.800781 -6.4375 14.75 -6 L 5 -6 C 5.0625 -5.125 5.335938 -4.453125 5.828125 -3.984375 C 6.328125 -3.523438 6.941406 -3.296875 7.671875 -3.296875 C 8.742188 -3.296875 9.488281 -3.753906 9.90625 -4.671875 L 14.5 -4.671875 C 14.257812 -3.742188 13.832031 -2.910156 13.21875 -2.171875 C 12.613281 -1.429688 11.847656 -0.847656 10.921875 -0.421875 C 9.992188 -0.00390625 8.957031 0.203125 7.8125 0.203125 C 6.4375 0.203125 5.207031 -0.0859375 4.125 -0.671875 C 3.050781 -1.265625 2.210938 -2.109375 1.609375 -3.203125 C 1.003906 -4.296875 0.703125 -5.570312 0.703125 -7.03125 C 0.703125 -8.5 1 -9.78125 1.59375 -10.875 C 2.195312 -11.96875 3.035156 -12.804688 4.109375 -13.390625 C 5.179688 -13.984375 6.414062 -14.28125 7.8125 -14.28125 C 9.175781 -14.28125 10.382812 -13.992188 11.4375 -13.421875 C 12.5 -12.847656 13.328125 -12.03125 13.921875 -10.96875 C 14.523438 -9.90625 14.828125 -8.671875 14.828125 -7.265625 Z M 10.421875 -8.390625 C 10.421875 -9.128906 10.164062 -9.71875 9.65625 -10.15625 C 9.15625 -10.59375 8.523438 -10.8125 7.765625 -10.8125 C 7.046875 -10.8125 6.4375 -10.601562 5.9375 -10.1875 C 5.4375 -9.769531 5.128906 -9.171875 5.015625 -8.390625 Z M 10.421875 -8.390625 "/></g></g></g><g fill="#c3592b" fill-opacity="1"><g transform="translate(34.956304, 23.509956)"><g><path d="M 0.703125 -7.0625 C 0.703125 -8.507812 0.972656 -9.78125 1.515625 -10.875 C 2.066406 -11.96875 2.8125 -12.804688 3.75 -13.390625 C 4.695312 -13.984375 5.75 -14.28125 6.90625 -14.28125 C 7.894531 -14.28125 8.765625 -14.078125 9.515625 -13.671875 C 10.265625 -13.265625 10.84375 -12.734375 11.25 -12.078125 L 11.25 -14.078125 L 15.5625 -14.078125 L 15.5625 0 L 11.25 0 L 11.25 -2 C 10.820312 -1.34375 10.234375 -0.8125 9.484375 -0.40625 C 8.742188 0 7.878906 0.203125 6.890625 0.203125 C 5.742188 0.203125 4.695312 -0.09375 3.75 -0.6875 C 2.8125 -1.289062 2.066406 -2.140625 1.515625 -3.234375 C 0.972656 -4.335938 0.703125 -5.613281 0.703125 -7.0625 Z M 11.25 -7.03125 C 11.25 -8.113281 10.945312 -8.960938 10.34375 -9.578125 C 9.75 -10.203125 9.023438 -10.515625 8.171875 -10.515625 C 7.316406 -10.515625 6.585938 -10.207031 5.984375 -9.59375 C 5.390625 -8.976562 5.09375 -8.132812 5.09375 -7.0625 C 5.09375 -5.988281 5.390625 -5.132812 5.984375 -4.5 C 6.585938 -3.875 7.316406 -3.5625 8.171875 -3.5625 C 9.023438 -3.5625 9.75 -3.867188 10.34375 -4.484375 C 10.945312 -5.109375 11.25 -5.957031 11.25 -7.03125 Z M 11.25 -7.03125 "/></g></g></g><g fill="#c3592b" fill-opacity="1"><g transform="translate(52.079732, 23.509956)"><g><path d="M 5.875 -11.734375 C 6.375 -12.503906 7.003906 -13.109375 7.765625 -13.546875 C 8.523438 -13.992188 9.367188 -14.21875 10.296875 -14.21875 L 10.296875 -9.65625 L 9.109375 -9.65625 C 8.023438 -9.65625 7.210938 -9.421875 6.671875 -8.953125 C 6.140625 -8.492188 5.875 -7.6875 5.875 -6.53125 L 5.875 0 L 1.5625 0 L 1.5625 -14.078125 L 5.875 -14.078125 Z M 5.875 -11.734375 "/></g></g></g><g fill="#c3592b" fill-opacity="1"><g transform="translate(62.873287, 23.509956)"><g><path d="M 9.40625 -3.65625 L 9.40625 0 L 7.21875 0 C 5.65625 0 4.4375 -0.378906 3.5625 -1.140625 C 2.6875 -1.910156 2.25 -3.160156 2.25 -4.890625 L 2.25 -10.484375 L 0.53125 -10.484375 L 0.53125 -14.078125 L 2.25 -14.078125 L 2.25 -17.5 L 6.5625 -17.5 L 6.5625 -14.078125 L 9.375 -14.078125 L 9.375 -10.484375 L 6.5625 -10.484375 L 6.5625 -4.84375 C 6.5625 -4.425781 6.660156 -4.125 6.859375 -3.9375 C 7.054688 -3.75 7.394531 -3.65625 7.875 -3.65625 Z M 9.40625 -3.65625 "/></g></g></g><g fill="#c3592b" fill-opacity="1"><g transform="translate(73.112034, 23.509956)"><g><path d="M 10.21875 -14.21875 C 11.832031 -14.21875 13.125 -13.679688 14.09375 -12.609375 C 15.070312 -11.546875 15.5625 -10.082031 15.5625 -8.21875 L 15.5625 0 L 11.265625 0 L 11.265625 -7.640625 C 11.265625 -8.578125 11.019531 -9.304688 10.53125 -9.828125 C 10.050781 -10.347656 9.398438 -10.609375 8.578125 -10.609375 C 7.753906 -10.609375 7.097656 -10.347656 6.609375 -9.828125 C 6.117188 -9.304688 5.875 -8.578125 5.875 -7.640625 L 5.875 0 L 1.5625 0 L 1.5625 -18.65625 L 5.875 -18.65625 L 5.875 -12.1875 C 6.3125 -12.800781 6.90625 -13.289062 7.65625 -13.65625 C 8.414062 -14.03125 9.269531 -14.21875 10.21875 -14.21875 Z M 10.21875 -14.21875 "/></g></g></g><g fill="#c3592b" fill-opacity="1"><g transform="translate(90.109361, 23.509956)"><g><path d="M 21.765625 -14.078125 L 17.953125 0 L 13.1875 0 L 10.96875 -9.125 L 8.671875 0 L 3.9375 0 L 0.09375 -14.078125 L 4.40625 -14.078125 L 6.40625 -4.015625 L 8.78125 -14.078125 L 13.34375 -14.078125 L 15.734375 -4.0625 L 17.703125 -14.078125 Z M 21.765625 -14.078125 "/></g></g></g><g fill="#c3592b" fill-opacity="1"><g transform="translate(111.948658, 23.509956)"><g><path d="M 3.734375 -15.53125 C 2.972656 -15.53125 2.351562 -15.753906 1.875 -16.203125 C 1.394531 -16.648438 1.15625 -17.203125 1.15625 -17.859375 C 1.15625 -18.523438 1.394531 -19.082031 1.875 -19.53125 C 2.351562 -19.976562 2.972656 -20.203125 3.734375 -20.203125 C 4.472656 -20.203125 5.082031 -19.976562 5.5625 -19.53125 C 6.039062 -19.082031 6.28125 -18.523438 6.28125 -17.859375 C 6.28125 -17.203125 6.039062 -16.648438 5.5625 -16.203125 C 5.082031 -15.753906 4.472656 -15.53125 3.734375 -15.53125 Z M 5.875 -14.078125 L 5.875 0 L 1.5625 0 L 1.5625 -14.078125 Z M 5.875 -14.078125 "/></g></g></g><g fill="#c3592b" fill-opacity="1"><g transform="translate(119.388146, 23.509956)"><g><path d="M 7.28125 0.203125 C 6.0625 0.203125 4.972656 -0.00390625 4.015625 -0.421875 C 3.054688 -0.847656 2.296875 -1.425781 1.734375 -2.15625 C 1.179688 -2.882812 0.875 -3.703125 0.8125 -4.609375 L 5.0625 -4.609375 C 5.113281 -4.128906 5.34375 -3.734375 5.75 -3.421875 C 6.15625 -3.117188 6.648438 -2.96875 7.234375 -2.96875 C 7.773438 -2.96875 8.191406 -3.070312 8.484375 -3.28125 C 8.773438 -3.5 8.921875 -3.773438 8.921875 -4.109375 C 8.921875 -4.515625 8.710938 -4.8125 8.296875 -5 C 7.878906 -5.195312 7.195312 -5.414062 6.25 -5.65625 C 5.238281 -5.882812 4.394531 -6.128906 3.71875 -6.390625 C 3.050781 -6.648438 2.472656 -7.0625 1.984375 -7.625 C 1.503906 -8.1875 1.265625 -8.945312 1.265625 -9.90625 C 1.265625 -10.71875 1.484375 -11.453125 1.921875 -12.109375 C 2.367188 -12.773438 3.023438 -13.300781 3.890625 -13.6875 C 4.753906 -14.082031 5.785156 -14.28125 6.984375 -14.28125 C 8.753906 -14.28125 10.144531 -13.84375 11.15625 -12.96875 C 12.175781 -12.09375 12.757812 -10.929688 12.90625 -9.484375 L 8.921875 -9.484375 C 8.859375 -9.972656 8.644531 -10.359375 8.28125 -10.640625 C 7.914062 -10.929688 7.441406 -11.078125 6.859375 -11.078125 C 6.359375 -11.078125 5.972656 -10.976562 5.703125 -10.78125 C 5.429688 -10.582031 5.296875 -10.316406 5.296875 -9.984375 C 5.296875 -9.578125 5.507812 -9.273438 5.9375 -9.078125 C 6.363281 -8.878906 7.03125 -8.675781 7.9375 -8.46875 C 8.976562 -8.195312 9.828125 -7.929688 10.484375 -7.671875 C 11.140625 -7.410156 11.71875 -6.988281 12.21875 -6.40625 C 12.71875 -5.832031 12.972656 -5.054688 12.984375 -4.078125 C 12.984375 -3.253906 12.75 -2.519531 12.28125 -1.875 C 11.820312 -1.226562 11.160156 -0.71875 10.296875 -0.34375 C 9.429688 0.0195312 8.425781 0.203125 7.28125 0.203125 Z M 7.28125 0.203125 "/></g></g></g><g fill="#c3592b" fill-opacity="1"><g transform="translate(133.460128, 23.509956)"><g><path d="M 14.828125 -7.265625 C 14.828125 -6.859375 14.800781 -6.4375 14.75 -6 L 5 -6 C 5.0625 -5.125 5.335938 -4.453125 5.828125 -3.984375 C 6.328125 -3.523438 6.941406 -3.296875 7.671875 -3.296875 C 8.742188 -3.296875 9.488281 -3.753906 9.90625 -4.671875 L 14.5 -4.671875 C 14.257812 -3.742188 13.832031 -2.910156 13.21875 -2.171875 C 12.613281 -1.429688 11.847656 -0.847656 10.921875 -0.421875 C 9.992188 -0.00390625 8.957031 0.203125 7.8125 0.203125 C 6.4375 0.203125 5.207031 -0.0859375 4.125 -0.671875 C 3.050781 -1.265625 2.210938 -2.109375 1.609375 -3.203125 C 1.003906 -4.296875 0.703125 -5.570312 0.703125 -7.03125 C 0.703125 -8.5 1 -9.78125 1.59375 -10.875 C 2.195312 -11.96875 3.035156 -12.804688 4.109375 -13.390625 C 5.179688 -13.984375 6.414062 -14.28125 7.8125 -14.28125 C 9.175781 -14.28125 10.382812 -13.992188 11.4375 -13.421875 C 12.5 -12.847656 13.328125 -12.03125 13.921875 -10.96875 C 14.523438 -9.90625 14.828125 -8.671875 14.828125 -7.265625 Z M 10.421875 -8.390625 C 10.421875 -9.128906 10.164062 -9.71875 9.65625 -10.15625 C 9.15625 -10.59375 8.523438 -10.8125 7.765625 -10.8125 C 7.046875 -10.8125 6.4375 -10.601562 5.9375 -10.1875 C 5.4375 -9.769531 5.128906 -9.171875 5.015625 -8.390625 Z M 10.421875 -8.390625 "/></g></g></g></g></g></g></svg>